<svg width="26" height="35" viewBox="0 0 26 35" fill="none" xmlns="http://www.w3.org/2000/svg">
<path d="M22.3382 10.0684C21.5829 10.0684 20.9705 10.7445 20.9705 11.5786V28.4791C20.8889 30.0687 19.6617 31.2882 18.2216 31.211H7.30775C5.86758 31.2882 4.64044 30.0687 4.55878 28.4791V11.5786C4.55878 10.7445 3.94646 10.0684 3.19113 10.0684C2.4358 10.0684 1.82349 10.7445 1.82349 11.5786V28.4791C1.90476 31.7372 4.3569 34.3092 7.30775 34.2314H18.2216C21.1724 34.3092 23.6246 31.7372 23.7058 28.4791V11.5786C23.7058 10.7445 23.0935 10.0684 22.3382 10.0684Z" fill="#8E3131" style="fill:#8E3131;fill:color(display-p3 0.5569 0.1922 0.1922);fill-opacity:1;"/>
<path fill-rule="evenodd" clip-rule="evenodd" d="M18.4379 4.83296H24.1111C24.8944 4.83296 25.5294 5.55422 25.5294 6.44394C25.5294 7.33366 24.8944 8.05493 24.1111 8.05493H1.4183C0.634995 8.05493 0 7.33366 0 6.44394C0 5.55422 0.634995 4.83296 1.4183 4.83296H7.0915V1.61099C7.0915 0.721263 7.7265 0 8.5098 0H17.0196C17.8029 0 18.4379 0.721263 18.4379 1.61099V4.83296ZM9.92793 3.22222V4.83321H15.6011V3.22222H9.92793Z" fill="#8E3131" style="fill:#8E3131;fill:color(display-p3 0.5569 0.1922 0.1922);fill-opacity:1;"/>
<path d="M10.9412 24.6119V13.6483C10.9412 12.7833 10.533 12.082 10.0294 12.082C9.52589 12.082 9.11768 12.7833 9.11768 13.6483V24.6119C9.11768 25.4769 9.52589 26.1782 10.0294 26.1782C10.533 26.1782 10.9412 25.4769 10.9412 24.6119Z" fill="#8E3131" style="fill:#8E3131;fill:color(display-p3 0.5569 0.1922 0.1922);fill-opacity:1;"/>
<path d="M16.4119 24.6119V13.6483C16.4119 12.7833 16.0037 12.082 15.5001 12.082C14.9966 12.082 14.5884 12.7833 14.5884 13.6483V24.6119C14.5884 25.4769 14.9966 26.1782 15.5001 26.1782C16.0037 26.1782 16.4119 25.4769 16.4119 24.6119Z" fill="#8E3131" style="fill:#8E3131;fill:color(display-p3 0.5569 0.1922 0.1922);fill-opacity:1;"/>
</svg>
