<svg width="26" height="35" viewBox="0 0 26 35" fill="none" xmlns="http://www.w3.org/2000/svg">
<path d="M22.3379 10.0688C21.5826 10.0688 20.9703 10.745 20.9703 11.579V28.4796C20.8886 30.0692 19.6615 31.2887 18.2213 31.2115H7.30751C5.86734 31.2887 4.6402 30.0692 4.55854 28.4796V11.579C4.55854 10.745 3.94622 10.0688 3.19089 10.0688C2.43556 10.0688 1.82324 10.745 1.82324 11.579V28.4796C1.90452 31.7377 4.35665 34.3097 7.30751 34.2319H18.2213C21.1722 34.3097 23.6243 31.7377 23.7056 28.4796V11.579C23.7056 10.745 23.0933 10.0688 22.3379 10.0688Z" fill="#9B9B9B" style="fill:#9B9B9B;fill:color(display-p3 0.6073 0.6073 0.6073);fill-opacity:1;"/>
<path fill-rule="evenodd" clip-rule="evenodd" d="M18.4379 4.83296H24.1111C24.8944 4.83296 25.5294 5.55422 25.5294 6.44394C25.5294 7.33366 24.8944 8.05493 24.1111 8.05493H1.4183C0.634995 8.05493 0 7.33366 0 6.44394C0 5.55422 0.634995 4.83296 1.4183 4.83296H7.0915V1.61099C7.0915 0.721263 7.7265 0 8.5098 0H17.0196C17.8029 0 18.4379 0.721263 18.4379 1.61099V4.83296ZM9.92793 3.22222V4.83321H15.6011V3.22222H9.92793Z" fill="#9B9B9B" style="fill:#9B9B9B;fill:color(display-p3 0.6073 0.6073 0.6073);fill-opacity:1;"/>
<path d="M10.9412 24.6119V13.6483C10.9412 12.7833 10.533 12.082 10.0294 12.082C9.52589 12.082 9.11768 12.7833 9.11768 13.6483V24.6119C9.11768 25.4769 9.52589 26.1782 10.0294 26.1782C10.533 26.1782 10.9412 25.4769 10.9412 24.6119Z" fill="#9B9B9B" style="fill:#9B9B9B;fill:color(display-p3 0.6073 0.6073 0.6073);fill-opacity:1;"/>
<path d="M16.4119 24.6119V13.6483C16.4119 12.7833 16.0037 12.082 15.5001 12.082C14.9966 12.082 14.5884 12.7833 14.5884 13.6483V24.6119C14.5884 25.4769 14.9966 26.1782 15.5001 26.1782C16.0037 26.1782 16.4119 25.4769 16.4119 24.6119Z" fill="#9B9B9B" style="fill:#9B9B9B;fill:color(display-p3 0.6073 0.6073 0.6073);fill-opacity:1;"/>
</svg>
