<svg width="35" height="35" viewBox="0 0 35 35" fill="none" xmlns="http://www.w3.org/2000/svg">
<g clip-path="url(#clip0_474_334)">
<circle cx="17.5" cy="17.5" r="17.25" fill="white" stroke="#939393" stroke-width="0.5"/>
<g clip-path="url(#clip1_474_334)">
<path d="M20.6016 8.79149C20.6006 8.79202 20.5995 8.79251 20.5984 8.79305C20.3917 8.80825 20.1991 8.90384 20.062 9.05931C19.9248 9.21479 19.854 9.41777 19.8647 9.62481C19.8754 9.83185 19.9668 10.0265 20.1193 10.167C20.2717 10.3075 20.4732 10.3826 20.6804 10.3764H24.6372V14.3317C24.6418 14.5386 24.7272 14.7355 24.8752 14.8802C25.0231 15.0249 25.2219 15.1059 25.4289 15.1059C25.6358 15.1059 25.8346 15.0249 25.9825 14.8802C26.1305 14.7355 26.2159 14.5386 26.2205 14.3317V9.58162C26.2197 9.37166 26.1355 9.17067 25.9864 9.02279C25.8374 8.87491 25.6357 8.79225 25.4258 8.79305H20.6804C20.6542 8.79121 20.6279 8.79071 20.6016 8.79149ZM9.58168 8.79305C9.37279 8.79388 9.1727 8.87727 9.02499 9.02498C8.87728 9.17269 8.79393 9.37273 8.7931 9.58162V14.3317C8.7931 14.5419 8.87659 14.7434 9.0252 14.892C9.17381 15.0406 9.37537 15.1241 9.58554 15.1241C9.79571 15.1241 9.99727 15.0406 10.1459 14.892C10.2945 14.7434 10.378 14.5419 10.378 14.3317V10.3764H14.3332C14.4386 10.3787 14.5435 10.36 14.6415 10.3213C14.7396 10.2825 14.829 10.2245 14.9043 10.1508C14.9797 10.077 15.0396 9.98901 15.0805 9.89181C15.1214 9.79461 15.1424 9.69017 15.1424 9.58472C15.1424 9.47928 15.1214 9.37493 15.0805 9.27773C15.0396 9.18053 14.9797 9.09242 14.9043 9.01868C14.829 8.94494 14.7396 8.88704 14.6415 8.84829C14.5435 8.80954 14.4386 8.79074 14.3332 8.79305H9.58168ZM17.5076 12.7483C14.8936 12.7483 12.7561 14.8859 12.7561 17.4999C12.7561 20.1138 14.8936 22.2514 17.5076 22.2514C20.1216 22.2514 22.2576 20.1138 22.2576 17.4999C22.2576 14.8859 20.1216 12.7483 17.5076 12.7483ZM9.57704 19.8609C9.54963 19.8615 9.52228 19.8635 9.49508 19.867C9.29943 19.8893 9.1191 19.9837 8.9893 20.1318C8.8595 20.2799 8.78955 20.471 8.7931 20.6679V25.4178C8.79393 25.6267 8.87728 25.8269 9.02499 25.9746C9.1727 26.1223 9.37279 26.2056 9.58168 26.2064H14.3332C14.5401 26.2017 14.7368 26.1162 14.8815 25.9683C15.0261 25.8203 15.1071 25.6217 15.1071 25.4148C15.1071 25.2079 15.0261 25.0092 14.8815 24.8613C14.7368 24.7133 14.5401 24.6279 14.3332 24.6232H10.378V20.6679C10.3801 20.5618 10.3608 20.4565 10.3214 20.358C10.2819 20.2596 10.2231 20.1701 10.1484 20.0948C10.0737 20.0195 9.98461 19.9599 9.88646 19.9197C9.78831 19.8795 9.68309 19.8597 9.57704 19.8609ZM25.4196 19.8609C25.3922 19.8615 25.3649 19.8635 25.3377 19.867C25.1423 19.8896 24.9624 19.9842 24.8329 20.1322C24.7034 20.2803 24.6337 20.4712 24.6373 20.6679V24.6232H20.6805C20.575 24.6208 20.4701 24.6394 20.372 24.6781C20.2738 24.7168 20.1844 24.7748 20.1089 24.8485C20.0335 24.9223 19.9735 25.0103 19.9326 25.1076C19.8917 25.2048 19.8706 25.3093 19.8706 25.4148C19.8706 25.5203 19.8917 25.6248 19.9326 25.722C19.9735 25.8192 20.0335 25.9073 20.1089 25.9811C20.1844 26.0548 20.2738 26.1127 20.372 26.1514C20.4701 26.1902 20.575 26.2088 20.6805 26.2064H25.4258C25.6358 26.2072 25.8375 26.1246 25.9865 25.9768C26.1355 25.8289 26.2197 25.6278 26.2206 25.4178V20.6679C26.2227 20.5618 26.2034 20.4565 26.164 20.358C26.1245 20.2596 26.0657 20.1701 25.991 20.0948C25.9163 20.0195 25.8272 19.9599 25.7291 19.9197C25.6309 19.8795 25.5257 19.8597 25.4196 19.8609Z" fill="#939393"/>
</g>
</g>
<defs>
<clipPath id="clip0_474_334">
<rect width="35" height="35" fill="white"/>
</clipPath>
<clipPath id="clip1_474_334">
<rect width="19" height="19" fill="white" transform="translate(8 8)"/>
</clipPath>
</defs>
</svg>
