<svg width="319" height="6" viewBox="0 0 319 6" fill="none" xmlns="http://www.w3.org/2000/svg">
<path d="M0.379314 2.57267C0.281377 2.66999 0.280879 2.82828 0.378202 2.92622L1.96418 4.52221C2.06151 4.62014 2.2198 4.62064 2.31773 4.52332C2.41567 4.42599 2.41617 4.2677 2.31885 4.16977L0.909086 2.75111L2.32774 1.34135C2.42568 1.24403 2.42617 1.08574 2.32885 0.987801C2.23153 0.889863 2.07324 0.889365 1.9753 0.986689L0.379314 2.57267ZM318.744 3.92733C318.842 3.83001 318.843 3.67172 318.745 3.57378L317.159 1.97779C317.062 1.87986 316.904 1.87936 316.806 1.97668C316.708 2.07401 316.707 2.2323 316.805 2.33023L318.214 3.74889L316.796 5.15865C316.698 5.25597 316.697 5.41426 316.795 5.5122C316.892 5.61014 317.05 5.61063 317.148 5.51331L318.744 3.92733ZM317.069 3.49528L316.819 3.4945L316.817 3.9945L317.067 3.99528L317.069 3.49528ZM314.067 3.98585L314.317 3.98663L314.319 3.48664L314.069 3.48585L314.067 3.98585ZM311.068 3.47642L310.818 3.47563L310.817 3.97563L311.067 3.97641L311.068 3.47642ZM308.067 3.96698L308.317 3.96777L308.318 3.46777L308.068 3.46698L308.067 3.96698ZM305.068 3.45755L304.818 3.45676L304.817 3.95676L305.067 3.95755L305.068 3.45755ZM302.066 3.94811L302.316 3.9489L302.318 3.4489L302.068 3.44811L302.066 3.94811ZM299.068 3.43868L298.818 3.43789L298.816 3.93789L299.066 3.93868L299.068 3.43868ZM296.066 3.92924L296.316 3.93003L296.318 3.43003L296.068 3.42925L296.066 3.92924ZM293.068 3.41981L292.818 3.41903L292.816 3.91902L293.066 3.91981L293.068 3.41981ZM290.066 3.91038L290.316 3.91116L290.318 3.41116L290.068 3.41038L290.066 3.91038ZM287.067 3.40094L286.817 3.40016L286.816 3.90016L287.066 3.90094L287.067 3.40094ZM284.066 3.89151L284.316 3.89229L284.317 3.3923L284.067 3.39151L284.066 3.89151ZM281.067 3.38208L280.817 3.38129L280.816 3.88129L281.066 3.88207L281.067 3.38208ZM278.066 3.87264L278.316 3.87343L278.317 3.37343L278.067 3.37264L278.066 3.87264ZM275.067 3.36321L274.817 3.36242L274.815 3.86242L275.065 3.86321L275.067 3.36321ZM272.065 3.85377L272.315 3.85456L272.317 3.35456L272.067 3.35377L272.065 3.85377ZM269.067 3.34434L268.817 3.34355L268.815 3.84355L269.065 3.84434L269.067 3.34434ZM266.065 3.8349L266.315 3.83569L266.317 3.33569L266.067 3.33491L266.065 3.8349ZM263.067 3.32547L262.817 3.32469L262.815 3.82468L263.065 3.82547L263.067 3.32547ZM260.065 3.81604L260.315 3.81682L260.316 3.31683L260.066 3.31604L260.065 3.81604ZM257.066 3.3066L256.816 3.30582L256.815 3.80582L257.065 3.8066L257.066 3.3066ZM254.065 3.79717L254.315 3.79795L254.316 3.29796L254.066 3.29717L254.065 3.79717ZM251.066 3.28774L250.816 3.28695L250.814 3.78695L251.064 3.78773L251.066 3.28774ZM248.064 3.7783L248.314 3.77909L248.316 3.27909L248.066 3.2783L248.064 3.7783ZM245.066 3.26887L244.816 3.26808L244.814 3.76808L245.064 3.76887L245.066 3.26887ZM242.064 3.75943L242.314 3.76022L242.316 3.26022L242.066 3.25944L242.064 3.75943ZM239.066 3.25L238.816 3.24922L238.814 3.74921L239.064 3.75L239.066 3.25ZM236.064 3.74056L236.314 3.74135L236.315 3.24135L236.066 3.24057L236.064 3.74056ZM233.065 3.23113L232.815 3.23035L232.814 3.73034L233.064 3.73113L233.065 3.23113ZM230.064 3.7217L230.314 3.72248L230.315 3.22249L230.065 3.2217L230.064 3.7217ZM227.065 3.21227L226.815 3.21148L226.814 3.71148L227.064 3.71226L227.065 3.21227ZM224.063 3.70283L224.313 3.70362L224.315 3.20362L224.065 3.20283L224.063 3.70283ZM221.065 3.1934L220.815 3.19261L220.813 3.69261L221.063 3.6934L221.065 3.1934ZM218.063 3.68396L218.313 3.68475L218.315 3.18475L218.065 3.18396L218.063 3.68396ZM215.065 3.17453L214.815 3.17374L214.813 3.67374L215.063 3.67453L215.065 3.17453ZM212.063 3.66509L212.313 3.66588L212.315 3.16588L212.065 3.1651L212.063 3.66509ZM209.064 3.15566L208.814 3.15488L208.813 3.65487L209.063 3.65566L209.064 3.15566ZM206.063 3.64623L206.313 3.64701L206.314 3.14701L206.064 3.14623L206.063 3.64623ZM203.064 3.13679L202.814 3.13601L202.813 3.63601L203.063 3.63679L203.064 3.13679ZM200.063 3.62736L200.313 3.62814L200.314 3.12815L200.064 3.12736L200.063 3.62736ZM197.064 3.11793L196.814 3.11714L196.812 3.61714L197.062 3.61792L197.064 3.11793ZM194.062 3.60849L194.312 3.60928L194.314 3.10928L194.064 3.10849L194.062 3.60849ZM191.064 3.09906L190.814 3.09827L190.812 3.59827L191.062 3.59906L191.064 3.09906ZM188.062 3.58962L188.312 3.59041L188.314 3.09041L188.064 3.08962L188.062 3.58962ZM185.064 3.08019L184.814 3.0794L184.812 3.5794L185.062 3.58019L185.064 3.08019ZM182.062 3.57075L182.312 3.57154L182.313 3.07154L182.063 3.07076L182.062 3.57075ZM179.063 3.06132L178.813 3.06054L178.812 3.56053L179.062 3.56132L179.063 3.06132ZM176.062 3.55189L176.312 3.55267L176.313 3.05267L176.063 3.05189L176.062 3.55189ZM173.063 3.04245L172.813 3.04167L172.811 3.54167L173.061 3.54245L173.063 3.04245ZM170.061 3.53302L170.311 3.5338L170.313 3.03381L170.063 3.03302L170.061 3.53302ZM167.063 3.02359L166.813 3.0228L166.811 3.5228L167.061 3.52358L167.063 3.02359ZM164.061 3.51415L164.311 3.51494L164.313 3.01494L164.063 3.01415L164.061 3.51415ZM161.063 3.00472L160.813 3.00393L160.811 3.50393L161.061 3.50472L161.063 3.00472ZM158.061 3.49528L158.311 3.49607L158.312 2.99607L158.062 2.99528L158.061 3.49528ZM155.062 2.98585L154.812 2.98506L154.811 3.48506L155.061 3.48585L155.062 2.98585ZM152.061 3.47641L152.311 3.4772L152.312 2.9772L152.062 2.97642L152.061 3.47641ZM149.062 2.96698L148.812 2.9662L148.81 3.46619L149.06 3.46698L149.062 2.96698ZM146.06 3.45755L146.31 3.45833L146.312 2.95833L146.062 2.95755L146.06 3.45755ZM143.062 2.94811L142.812 2.94733L142.81 3.44733L143.06 3.44811L143.062 2.94811ZM140.06 3.43868L140.31 3.43946L140.312 2.93947L140.062 2.93868L140.06 3.43868ZM137.062 2.92925L136.812 2.92846L136.81 3.42846L137.06 3.42924L137.062 2.92925ZM134.06 3.41981L134.31 3.4206L134.311 2.9206L134.061 2.91981L134.06 3.41981ZM131.061 2.91038L130.811 2.90959L130.81 3.40959L131.06 3.41038L131.061 2.91038ZM128.06 3.40094L128.31 3.40173L128.311 2.90173L128.061 2.90094L128.06 3.40094ZM125.061 2.89151L124.811 2.89072L124.81 3.39072L125.06 3.39151L125.061 2.89151ZM122.059 3.38207L122.309 3.38286L122.311 2.88286L122.061 2.88208L122.059 3.38207ZM119.061 2.87264L118.811 2.87186L118.809 3.37185L119.059 3.37264L119.061 2.87264ZM116.059 3.36321L116.309 3.36399L116.311 2.86399L116.061 2.86321L116.059 3.36321ZM113.061 2.85377L112.811 2.85299L112.809 3.35299L113.059 3.35377L113.061 2.85377ZM110.059 3.34434L110.309 3.34512L110.31 2.84513L110.06 2.84434L110.059 3.34434ZM107.06 2.83491L106.81 2.83412L106.809 3.33412L107.059 3.3349L107.06 2.83491ZM104.059 3.32547L104.309 3.32626L104.31 2.82626L104.06 2.82547L104.059 3.32547ZM101.06 2.81604L100.81 2.81525L100.809 3.31525L101.059 3.31604L101.06 2.81604ZM98.0584 3.3066L98.3084 3.30739L98.31 2.80739L98.06 2.8066L98.0584 3.3066ZM95.0599 2.79717L94.8099 2.79638L94.8083 3.29638L95.0583 3.29717L95.0599 2.79717ZM92.0582 3.28773L92.3082 3.28852L92.3097 2.78852L92.0597 2.78774L92.0582 3.28773ZM89.0596 2.7783L88.8096 2.77752L88.8081 3.27751L89.058 3.2783L89.0596 2.7783ZM86.0579 3.26887L86.3079 3.26965L86.3095 2.76965L86.0595 2.76887L86.0579 3.26887ZM83.0594 2.75943L82.8094 2.75865L82.8078 3.25865L83.0578 3.25943L83.0594 2.75943ZM80.0577 3.25L80.3077 3.25078L80.3092 2.75079L80.0592 2.75L80.0577 3.25ZM77.0591 2.74057L76.8091 2.73978L76.8075 3.23978L77.0575 3.24056L77.0591 2.74057ZM74.0574 3.23113L74.3074 3.23192L74.309 2.73192L74.059 2.73113L74.0574 3.23113ZM71.0589 2.7217L70.8089 2.72091L70.8073 3.22091L71.0573 3.2217L71.0589 2.7217ZM68.0572 3.21226L68.3072 3.21305L68.3088 2.71305L68.0588 2.71226L68.0572 3.21226ZM65.0586 2.70283L64.8086 2.70204L64.8071 3.20204L65.0571 3.20283L65.0586 2.70283ZM62.0569 3.19339L62.3069 3.19418L62.3085 2.69418L62.0585 2.6934L62.0569 3.19339ZM59.0584 2.68396L58.8084 2.68318L58.8068 3.18317L59.0568 3.18396L59.0584 2.68396ZM56.0567 3.17453L56.3067 3.17531L56.3083 2.67532L56.0583 2.67453L56.0567 3.17453ZM53.0582 2.66509L52.8082 2.66431L52.8066 3.16431L53.0566 3.16509L53.0582 2.66509ZM50.0565 3.15566L50.3065 3.15644L50.3081 2.65645L50.0581 2.65566L50.0565 3.15566ZM47.058 2.64623L46.808 2.64544L46.8064 3.14544L47.0564 3.14622L47.058 2.64623ZM44.0563 3.13679L44.3063 3.13758L44.3079 2.63758L44.0579 2.63679L44.0563 3.13679ZM41.0578 2.62736L40.8078 2.62657L40.8062 3.12657L41.0562 3.12736L41.0578 2.62736ZM38.0561 3.11792L38.3061 3.11871L38.3077 2.61871L38.0577 2.61793L38.0561 3.11792ZM35.0576 2.60849L34.8076 2.60771L34.806 3.1077L35.056 3.10849L35.0576 2.60849ZM32.0559 3.09906L32.3059 3.09984L32.3074 2.59984L32.0575 2.59906L32.0559 3.09906ZM29.0573 2.58962L28.8073 2.58884L28.8058 3.08884L29.0558 3.08962L29.0573 2.58962ZM26.0557 3.08019L26.3056 3.08097L26.3072 2.58098L26.0572 2.58019L26.0557 3.08019ZM23.0571 2.57076L22.8071 2.56997L22.8055 3.06997L23.0555 3.07075L23.0571 2.57076ZM20.0554 3.06132L20.3054 3.06211L20.307 2.56211L20.057 2.56132L20.0554 3.06132ZM17.0569 2.55189L16.8069 2.5511L16.8053 3.0511L17.0553 3.05189L17.0569 2.55189ZM14.0552 3.04245L14.3052 3.04324L14.3068 2.54324L14.0568 2.54245L14.0552 3.04245ZM11.0567 2.53302L10.8067 2.53223L10.8051 3.03223L11.0551 3.03302L11.0567 2.53302ZM8.05502 3.02358L8.30502 3.02437L8.30659 2.52437L8.05659 2.52359L8.05502 3.02358ZM5.05649 2.51415L4.80649 2.51337L4.80492 3.01336L5.05491 3.01415L5.05649 2.51415ZM2.05481 3.00472L2.30481 3.0055L2.30638 2.5055L2.05638 2.50472L2.05481 3.00472ZM318.569 3.5L317.069 3.49528L317.067 3.99528L318.567 4L318.569 3.5ZM314.069 3.48585L311.068 3.47642L311.067 3.97641L314.067 3.98585L314.069 3.48585ZM308.068 3.46698L305.068 3.45755L305.067 3.95755L308.067 3.96698L308.068 3.46698ZM302.068 3.44811L299.068 3.43868L299.066 3.93868L302.066 3.94811L302.068 3.44811ZM296.068 3.42925L293.068 3.41981L293.066 3.91981L296.066 3.92924L296.068 3.42925ZM290.068 3.41038L287.067 3.40094L287.066 3.90094L290.066 3.91038L290.068 3.41038ZM284.067 3.39151L281.067 3.38208L281.066 3.88207L284.066 3.89151L284.067 3.39151ZM278.067 3.37264L275.067 3.36321L275.065 3.86321L278.066 3.87264L278.067 3.37264ZM272.067 3.35377L269.067 3.34434L269.065 3.84434L272.065 3.85377L272.067 3.35377ZM266.067 3.33491L263.067 3.32547L263.065 3.82547L266.065 3.8349L266.067 3.33491ZM260.066 3.31604L257.066 3.3066L257.065 3.8066L260.065 3.81604L260.066 3.31604ZM254.066 3.29717L251.066 3.28774L251.064 3.78773L254.065 3.79717L254.066 3.29717ZM248.066 3.2783L245.066 3.26887L245.064 3.76887L248.064 3.7783L248.066 3.2783ZM242.066 3.25944L239.066 3.25L239.064 3.75L242.064 3.75943L242.066 3.25944ZM236.066 3.24057L233.065 3.23113L233.064 3.73113L236.064 3.74056L236.066 3.24057ZM230.065 3.2217L227.065 3.21227L227.064 3.71226L230.064 3.7217L230.065 3.2217ZM224.065 3.20283L221.065 3.1934L221.063 3.6934L224.063 3.70283L224.065 3.20283ZM218.065 3.18396L215.065 3.17453L215.063 3.67453L218.063 3.68396L218.065 3.18396ZM212.065 3.1651L209.064 3.15566L209.063 3.65566L212.063 3.66509L212.065 3.1651ZM206.064 3.14623L203.064 3.13679L203.063 3.63679L206.063 3.64623L206.064 3.14623ZM200.064 3.12736L197.064 3.11793L197.062 3.61792L200.063 3.62736L200.064 3.12736ZM194.064 3.10849L191.064 3.09906L191.062 3.59906L194.062 3.60849L194.064 3.10849ZM188.064 3.08962L185.064 3.08019L185.062 3.58019L188.062 3.58962L188.064 3.08962ZM182.063 3.07076L179.063 3.06132L179.062 3.56132L182.062 3.57075L182.063 3.07076ZM176.063 3.05189L173.063 3.04245L173.061 3.54245L176.062 3.55189L176.063 3.05189ZM170.063 3.03302L167.063 3.02359L167.061 3.52358L170.061 3.53302L170.063 3.03302ZM164.063 3.01415L161.063 3.00472L161.061 3.50472L164.061 3.51415L164.063 3.01415ZM158.062 2.99528L155.062 2.98585L155.061 3.48585L158.061 3.49528L158.062 2.99528ZM152.062 2.97642L149.062 2.96698L149.06 3.46698L152.061 3.47641L152.062 2.97642ZM146.062 2.95755L143.062 2.94811L143.06 3.44811L146.06 3.45755L146.062 2.95755ZM140.062 2.93868L137.062 2.92925L137.06 3.42924L140.06 3.43868L140.062 2.93868ZM134.061 2.91981L131.061 2.91038L131.06 3.41038L134.06 3.41981L134.061 2.91981ZM128.061 2.90094L125.061 2.89151L125.06 3.39151L128.06 3.40094L128.061 2.90094ZM122.061 2.88208L119.061 2.87264L119.059 3.37264L122.059 3.38207L122.061 2.88208ZM116.061 2.86321L113.061 2.85377L113.059 3.35377L116.059 3.36321L116.061 2.86321ZM110.06 2.84434L107.06 2.83491L107.059 3.3349L110.059 3.34434L110.06 2.84434ZM104.06 2.82547L101.06 2.81604L101.059 3.31604L104.059 3.32547L104.06 2.82547ZM98.06 2.8066L95.0599 2.79717L95.0583 3.29717L98.0584 3.3066L98.06 2.8066ZM92.0597 2.78774L89.0596 2.7783L89.058 3.2783L92.0582 3.28773L92.0597 2.78774ZM86.0595 2.76887L83.0594 2.75943L83.0578 3.25943L86.0579 3.26887L86.0595 2.76887ZM80.0592 2.75L77.0591 2.74057L77.0575 3.24056L80.0577 3.25L80.0592 2.75ZM74.059 2.73113L71.0589 2.7217L71.0573 3.2217L74.0574 3.23113L74.059 2.73113ZM68.0588 2.71226L65.0586 2.70283L65.0571 3.20283L68.0572 3.21226L68.0588 2.71226ZM62.0585 2.6934L59.0584 2.68396L59.0568 3.18396L62.0569 3.19339L62.0585 2.6934ZM56.0583 2.67453L53.0582 2.66509L53.0566 3.16509L56.0567 3.17453L56.0583 2.67453ZM50.0581 2.65566L47.058 2.64623L47.0564 3.14622L50.0565 3.15566L50.0581 2.65566ZM44.0579 2.63679L41.0578 2.62736L41.0562 3.12736L44.0563 3.13679L44.0579 2.63679ZM38.0577 2.61793L35.0576 2.60849L35.056 3.10849L38.0561 3.11792L38.0577 2.61793ZM32.0575 2.59906L29.0573 2.58962L29.0558 3.08962L32.0559 3.09906L32.0575 2.59906ZM26.0572 2.58019L23.0571 2.57076L23.0555 3.07075L26.0557 3.08019L26.0572 2.58019ZM20.057 2.56132L17.0569 2.55189L17.0553 3.05189L20.0554 3.06132L20.057 2.56132ZM14.0568 2.54245L11.0567 2.53302L11.0551 3.03302L14.0552 3.04245L14.0568 2.54245ZM8.05659 2.52359L5.05649 2.51415L5.05491 3.01415L8.05502 3.02358L8.05659 2.52359ZM2.05638 2.50472L0.55632 2.5L0.554748 3L2.05481 3.00472L2.05638 2.50472Z" fill="#222222"/>
</svg>
