<svg width="35" height="35" viewBox="0 0 35 35" fill="none" xmlns="http://www.w3.org/2000/svg">
<g clip-path="url(#clip0_0_760)">
<circle cx="17.5" cy="17.5" r="17.25" fill="white" stroke="#939393" stroke-width="0.5"/>
<g clip-path="url(#clip1_0_760)">
<path d="M18.2 25H16.8C16.3269 25 15.9275 24.6456 15.8713 24.175L15.7219 23.0025C15.4237 22.9056 15.1363 22.7863 14.8631 22.6469L13.9294 23.3725C13.5506 23.6656 13.0175 23.6319 12.6888 23.2938L11.7044 22.3094C11.3687 21.9837 11.335 21.4506 11.6281 21.0725L12.3537 20.1381C12.2138 19.865 12.0944 19.5775 11.9981 19.2794L10.8231 19.13C10.3544 19.0725 10 18.6731 10 18.2V16.8C10 16.3269 10.3544 15.9275 10.825 15.8713L11.9975 15.7219C12.0944 15.4237 12.2138 15.1363 12.3531 14.8631L11.6281 13.9294C11.3344 13.5506 11.3688 13.0169 11.7075 12.6881L12.6919 11.7038C13.0175 11.3681 13.5512 11.335 13.9287 11.6275L14.8625 12.3537C15.1356 12.2144 15.4231 12.095 15.7219 11.9981L15.8713 10.8231C15.9275 10.3544 16.3269 10 16.8 10H18.2C18.6731 10 19.0725 10.3544 19.1287 10.825L19.2781 11.9975C19.5769 12.0944 19.8644 12.2138 20.1375 12.3531L21.0713 11.6275C21.4506 11.3344 21.9831 11.3681 22.3119 11.7069L23.2963 12.6913C23.6319 13.0169 23.6656 13.55 23.3725 13.9281L22.6469 14.8625C22.7869 15.1356 22.9063 15.4231 23.0025 15.7213L24.1775 15.8706C24.6456 15.9275 25 16.3269 25 16.8V18.2C25 18.6731 24.6456 19.0725 24.175 19.1287L23.0025 19.2781C22.9056 19.5763 22.7863 19.8637 22.6469 20.1369L23.3725 21.0706C23.6663 21.4494 23.6319 21.9825 23.2931 22.3112L22.3088 23.2956C21.9831 23.6313 21.4494 23.6656 21.0719 23.3719L20.1375 22.6462C19.8644 22.7862 19.5769 22.9056 19.2787 23.0019L19.1294 24.1769C19.0725 24.6456 18.6731 25 18.2 25ZM14.8313 21.9625C14.8831 21.9625 14.9363 21.9756 14.9837 22.0019C15.3281 22.1944 15.7013 22.3494 16.0925 22.4619C16.2125 22.4962 16.3006 22.5988 16.3162 22.7225L16.4913 24.0975C16.51 24.2544 16.6456 24.375 16.8 24.375H18.2C18.3544 24.375 18.49 24.2544 18.5081 24.1006L18.6838 22.7231C18.6994 22.5994 18.7875 22.4969 18.9075 22.4625C19.2987 22.35 19.6719 22.195 20.0162 22.0025C20.1256 21.9412 20.2619 21.9519 20.36 22.0288L21.4538 22.8788C21.5794 22.9763 21.7556 22.9681 21.8631 22.8575L22.8538 21.8669C22.9669 21.7569 22.9756 21.5806 22.8781 21.4544L22.0281 20.3606C21.9513 20.2619 21.9406 20.1263 22.0019 20.0169C22.1944 19.6725 22.3494 19.2994 22.4619 18.9081C22.4962 18.7881 22.5988 18.7 22.7225 18.6844L24.0975 18.5094C24.2544 18.49 24.375 18.3544 24.375 18.2V16.8C24.375 16.6456 24.2544 16.51 24.1006 16.4919L22.7231 16.3162C22.5994 16.3006 22.4969 16.2125 22.4625 16.0925C22.35 15.7013 22.195 15.3281 22.0025 14.9837C21.9412 14.8744 21.9513 14.7387 22.0288 14.64L22.8788 13.5462C22.9769 13.42 22.9681 13.2438 22.8581 13.1375L21.8675 12.1469C21.7581 12.0331 21.5812 12.0244 21.455 12.1225L20.3612 12.9725C20.2619 13.0494 20.1263 13.06 20.0169 12.9987C19.6737 12.8062 19.3006 12.6519 18.9081 12.5387C18.7881 12.5044 18.7 12.4019 18.6844 12.2781L18.5094 10.9031C18.49 10.7456 18.3544 10.625 18.2 10.625H16.8C16.6456 10.625 16.51 10.7456 16.4919 10.8994L16.3162 12.2769C16.3006 12.4006 16.2125 12.5031 16.0925 12.5381C15.7 12.6506 15.3269 12.8056 14.9837 12.9975C14.8744 13.0594 14.7387 13.0481 14.6394 12.9719L13.5456 12.1219C13.4194 12.0238 13.2438 12.0325 13.1369 12.1425L12.1463 13.1337C12.0331 13.2437 12.0244 13.42 12.1219 13.5462L12.9719 14.64C13.0488 14.7387 13.0594 14.8744 12.9981 14.9837C12.805 15.3281 12.6506 15.7013 12.5381 16.0925C12.5037 16.2125 12.4013 16.3006 12.2775 16.3162L10.9025 16.4913C10.7456 16.51 10.625 16.6456 10.625 16.8V18.2C10.625 18.3544 10.7456 18.49 10.8994 18.5081L12.2769 18.6838C12.4006 18.6994 12.5031 18.7875 12.5375 18.9075C12.65 19.2987 12.805 19.6719 12.9975 20.0162C13.0587 20.1256 13.0488 20.2613 12.9713 20.36L12.1213 21.4538C12.0231 21.58 12.0319 21.7562 12.1419 21.8625L13.1325 22.8531C13.2419 22.9663 13.4175 22.975 13.545 22.8775L14.6388 22.0275C14.6956 21.985 14.7631 21.9625 14.8313 21.9625Z" fill="#939393"/>
<path d="M17.5 20.625C15.7769 20.625 14.375 19.2231 14.375 17.5C14.375 15.7769 15.7769 14.375 17.5 14.375C19.2231 14.375 20.625 15.7769 20.625 17.5C20.625 19.2231 19.2231 20.625 17.5 20.625ZM17.5 15C16.1213 15 15 16.1213 15 17.5C15 18.8788 16.1213 20 17.5 20C18.8788 20 20 18.8788 20 17.5C20 16.1213 18.8788 15 17.5 15Z" fill="#939393"/>
</g>
</g>
<defs>
<clipPath id="clip0_0_760">
<rect width="35" height="35" fill="white"/>
</clipPath>
<clipPath id="clip1_0_760">
<rect width="15" height="15" fill="white" transform="translate(10 10)"/>
</clipPath>
</defs>
</svg>
