<svg width="35" height="35" viewBox="0 0 35 35" fill="none" xmlns="http://www.w3.org/2000/svg">
<g clip-path="url(#clip0_795_937)">
<circle cx="17.5" cy="17.5" r="17.25" fill="white" stroke="#939393" stroke-width="0.5"/>
<g clip-path="url(#clip1_795_937)">
<path d="M25.2537 18.8512L24.5465 18.269C24.062 17.8702 24.0629 17.129 24.5465 16.731L25.2537 16.1488C25.757 15.7345 25.8857 15.024 25.5598 14.4594L24.1633 12.0406C23.8373 11.4761 23.1575 11.2323 22.5472 11.461L21.6894 11.7824C21.1018 12.0024 20.4603 11.6312 20.3574 11.0133L20.2068 10.1097C20.0996 9.46674 19.5487 9 18.8968 9H16.1039C15.4519 9 14.901 9.46674 14.7938 10.1098L14.6432 11.0133C14.5401 11.6323 13.8977 12.0021 13.3112 11.7824L12.4534 11.461C11.8431 11.2323 11.1633 11.4761 10.8373 12.0406L9.44088 14.4593C9.11493 15.0239 9.24362 15.7344 9.74695 16.1488L10.4541 16.7309C10.9386 17.1298 10.9377 17.8709 10.4541 18.269L9.74692 18.8512C9.24362 19.2655 9.11489 19.9761 9.44085 20.5406L10.8373 22.9593C11.1633 23.5239 11.8429 23.7676 12.4534 23.539L13.3112 23.2176C13.8989 22.9974 14.5402 23.3689 14.6432 23.9866L14.7938 24.8902C14.901 25.5333 15.4519 26 16.1039 26H18.8967C19.5486 26 20.0996 25.5333 20.2068 24.8902L20.3573 23.9867C20.4605 23.3679 21.1028 22.9979 21.6893 23.2177L22.5472 23.539C23.1577 23.7677 23.8373 23.5239 24.1633 22.9594L25.5598 20.5406C25.8857 19.9761 25.757 19.2655 25.2537 18.8512ZM23.0131 22.2953L22.1553 21.9739C20.7841 21.4602 19.2876 22.3269 19.0473 23.7683L18.8968 24.6719H16.1039L15.9533 23.7683C15.7126 22.3241 14.2139 21.4612 12.8453 21.9739L11.9875 22.2953L10.5911 19.8766L11.2983 19.2944C12.4288 18.3637 12.4264 16.6344 11.2983 15.7056L10.5911 15.1234L11.9875 12.7047L12.8453 13.0261C14.2166 13.5397 15.7131 12.6731 15.9533 11.2317L16.1039 10.3281H18.8967L19.0473 11.2317C19.288 12.6761 20.7868 13.5387 22.1553 13.0261L23.0131 12.7047L24.4098 15.1231C24.4098 15.1231 24.4097 15.1232 24.4095 15.1234L23.7023 15.7056C22.5718 16.6362 22.5741 18.3656 23.7023 19.2944L24.4095 19.8765L23.0131 22.2953ZM17.5003 14.2239C15.6939 14.2239 14.2243 15.6936 14.2243 17.5C14.2243 19.3064 15.6939 20.7761 17.5003 20.7761C19.3067 20.7761 20.7764 19.3064 20.7764 17.5C20.7764 15.6936 19.3067 14.2239 17.5003 14.2239ZM17.5003 19.4479C16.4262 19.4479 15.5524 18.5741 15.5524 17.5C15.5524 16.4259 16.4262 15.5521 17.5003 15.5521C18.5744 15.5521 19.4482 16.4259 19.4482 17.5C19.4482 18.5741 18.5744 19.4479 17.5003 19.4479Z" fill="#939393"/>
</g>
</g>
<defs>
<clipPath id="clip0_795_937">
<rect width="35" height="35" fill="white"/>
</clipPath>
<clipPath id="clip1_795_937">
<rect width="17" height="17" fill="white" transform="translate(9 9)"/>
</clipPath>
</defs>
</svg>
