<svg width="5" height="104" viewBox="0 0 5 104" fill="none" xmlns="http://www.w3.org/2000/svg">
<path d="M2.67629 0.968738C2.57839 0.871376 2.4201 0.871811 2.32274 0.96971L0.736126 2.56507C0.638763 2.66296 0.639198 2.82126 0.737097 2.91862C0.834996 3.01598 0.993287 3.01555 1.09065 2.91765L2.50097 1.49955L3.91907 2.90987C4.01696 3.00724 4.17526 3.0068 4.27262 2.9089C4.36998 2.811 4.36955 2.65271 4.27165 2.55535L2.67629 0.968738ZM2.60496 103.677C2.70286 103.775 2.86115 103.774 2.95851 103.676L4.54512 102.081C4.64249 101.983 4.64205 101.825 4.54415 101.727C4.44625 101.63 4.28796 101.63 4.1906 101.728L2.78028 103.146L1.36218 101.736C1.26429 101.639 1.10599 101.639 1.00863 101.737C0.91127 101.835 0.911705 101.993 1.0096 102.091L2.60496 103.677ZM2.25414 2.65189L2.25482 2.90189L2.75482 2.90052L2.75414 2.65052L2.25414 2.65189ZM2.76241 5.66093L2.76172 5.41093L2.26172 5.41231L2.26241 5.6623L2.76241 5.66093ZM2.27068 8.67272L2.27137 8.92272L2.77137 8.92134L2.77068 8.67134L2.27068 8.67272ZM2.77895 11.6818L2.77826 11.4318L2.27827 11.4331L2.27895 11.6831L2.77895 11.6818ZM2.28723 14.6935L2.28791 14.9435L2.78791 14.9422L2.78722 14.6922L2.28723 14.6935ZM2.7955 17.7026L2.79481 17.4526L2.29481 17.454L2.2955 17.704L2.7955 17.7026ZM2.30377 20.7144L2.30446 20.9644L2.80445 20.963L2.80377 20.713L2.30377 20.7144ZM2.81204 23.7234L2.81135 23.4734L2.31135 23.4748L2.31204 23.7248L2.81204 23.7234ZM2.32031 26.7352L2.321 26.9852L2.821 26.9838L2.82031 26.7338L2.32031 26.7352ZM2.82858 29.7442L2.8279 29.4942L2.3279 29.4956L2.32859 29.7456L2.82858 29.7442ZM2.33686 32.756L2.33754 33.006L2.83754 33.0046L2.83686 32.7546L2.33686 32.756ZM2.84513 35.7651L2.84444 35.5151L2.34444 35.5164L2.34513 35.7664L2.84513 35.7651ZM2.3534 38.7768L2.35409 39.0268L2.85409 39.0255L2.8534 38.7755L2.3534 38.7768ZM2.86167 41.7859L2.86098 41.5359L2.36099 41.5372L2.36167 41.7872L2.86167 41.7859ZM2.36995 44.7977L2.37063 45.0477L2.87063 45.0463L2.86994 44.7963L2.36995 44.7977ZM2.87822 47.8067L2.87753 47.5567L2.37753 47.5581L2.37822 47.8081L2.87822 47.8067ZM2.38649 50.8185L2.38718 51.0685L2.88717 51.0671L2.88649 50.8171L2.38649 50.8185ZM2.89476 53.8275L2.89407 53.5775L2.39408 53.5789L2.39476 53.8289L2.89476 53.8275ZM2.40303 56.8393L2.40372 57.0893L2.90372 57.0879L2.90303 56.8379L2.40303 56.8393ZM2.9113 59.8483L2.91062 59.5983L2.41062 59.5997L2.41131 59.8497L2.9113 59.8483ZM2.41958 62.8601L2.42027 63.1101L2.92026 63.1087L2.91958 62.8587L2.41958 62.8601ZM2.92785 65.8692L2.92716 65.6192L2.42716 65.6205L2.42785 65.8705L2.92785 65.8692ZM2.43612 68.8809L2.43681 69.1309L2.93681 69.1296L2.93612 68.8796L2.43612 68.8809ZM2.94439 71.89L2.94371 71.64L2.44371 71.6414L2.44439 71.8914L2.94439 71.89ZM2.45267 74.9018L2.45335 75.1518L2.95335 75.1504L2.95266 74.9004L2.45267 74.9018ZM2.96094 77.9108L2.96025 77.6608L2.46025 77.6622L2.46094 77.9122L2.96094 77.9108ZM2.46921 80.9226L2.4699 81.1726L2.9699 81.1712L2.96921 80.9212L2.46921 80.9226ZM2.97748 83.9316L2.97679 83.6816L2.4768 83.683L2.47748 83.933L2.97748 83.9316ZM2.48575 86.9434L2.48644 87.1934L2.98644 87.192L2.98575 86.942L2.48575 86.9434ZM2.99402 89.9524L2.99334 89.7024L2.49334 89.7038L2.49403 89.9538L2.99402 89.9524ZM2.5023 92.9642L2.50299 93.2142L3.00298 93.2129L3.0023 92.9629L2.5023 92.9642ZM3.01057 95.9733L3.00988 95.7233L2.50988 95.7246L2.51057 95.9746L3.01057 95.9733ZM2.51884 98.985L2.51953 99.235L3.01953 99.2337L3.01884 98.9837L2.51884 98.985ZM3.02711 101.994L3.02643 101.744L2.52643 101.745L2.52711 101.995L3.02711 101.994ZM2.25 1.14669L2.25414 2.65189L2.75414 2.65052L2.75 1.14531L2.25 1.14669ZM2.26241 5.6623L2.27068 8.67272L2.77068 8.67134L2.76241 5.66093L2.26241 5.6623ZM2.27895 11.6831L2.28723 14.6935L2.78722 14.6922L2.77895 11.6818L2.27895 11.6831ZM2.2955 17.704L2.30377 20.7144L2.80377 20.713L2.7955 17.7026L2.2955 17.704ZM2.31204 23.7248L2.32031 26.7352L2.82031 26.7338L2.81204 23.7234L2.31204 23.7248ZM2.32859 29.7456L2.33686 32.756L2.83686 32.7546L2.82858 29.7442L2.32859 29.7456ZM2.34513 35.7664L2.3534 38.7768L2.8534 38.7755L2.84513 35.7651L2.34513 35.7664ZM2.36167 41.7872L2.36995 44.7977L2.86994 44.7963L2.86167 41.7859L2.36167 41.7872ZM2.37822 47.8081L2.38649 50.8185L2.88649 50.8171L2.87822 47.8067L2.37822 47.8081ZM2.39476 53.8289L2.40303 56.8393L2.90303 56.8379L2.89476 53.8275L2.39476 53.8289ZM2.41131 59.8497L2.41958 62.8601L2.91958 62.8587L2.9113 59.8483L2.41131 59.8497ZM2.42785 65.8705L2.43612 68.8809L2.93612 68.8796L2.92785 65.8692L2.42785 65.8705ZM2.44439 71.8914L2.45267 74.9018L2.95266 74.9004L2.94439 71.89L2.44439 71.8914ZM2.46094 77.9122L2.46921 80.9226L2.96921 80.9212L2.96094 77.9108L2.46094 77.9122ZM2.47748 83.933L2.48575 86.9434L2.98575 86.942L2.97748 83.9316L2.47748 83.933ZM2.49403 89.9538L2.5023 92.9642L3.0023 92.9629L2.99402 89.9524L2.49403 89.9538ZM2.51057 95.9746L2.51884 98.985L3.01884 98.9837L3.01057 95.9733L2.51057 95.9746ZM2.52711 101.995L2.53125 103.501L3.03125 103.499L3.02711 101.994L2.52711 101.995Z" fill="#222222"/>
</svg>
